<svg width="64" height="64" viewBox="0 0 64 64" fill="none" xmlns="http://www.w3.org/2000/svg">
<g clip-path="url(#clip0_66_216)">
<path d="M32 18.6667V1.22667C34.4347 2.14933 36.6747 3.57067 38.5733 5.46667L47.864 14.7627C49.7627 16.6587 51.184 18.8987 52.1067 21.3333H34.6667C33.1947 21.3333 32 20.136 32 18.6667ZM29.736 50.6667H13.3333C11.8587 50.6667 10.6667 49.4747 10.6667 48C10.6667 46.5253 11.8587 45.3333 13.3333 45.3333H29.3333V40H13.3333C11.8587 40 10.6667 38.808 10.6667 37.3333C10.6667 35.8587 11.8587 34.6667 13.3333 34.6667H29.424C29.8667 31.2587 31.928 28.2853 34.9413 26.6667H34.6667C30.256 26.6667 26.6667 23.0773 26.6667 18.6667V0.064C26.2373 0.0346667 25.808 0 25.3733 0H13.3333C5.98133 0 0 5.98133 0 13.3333V50.6667C0 58.0187 5.98133 64 13.3333 64H38.6107C34.9013 61.008 30.984 56.5787 29.7387 50.6667H29.736ZM50.888 63.6213C53.9627 62.384 64 57.5093 64 46.7627V36.0507C64 33.752 62.5307 31.7173 60.3467 30.9947L50.1733 27.6213C49.632 27.44 49.0373 27.44 48.496 27.6213L38.3227 30.9947C36.1387 31.7173 34.6693 33.752 34.6693 36.0507V46.7627C34.6693 56.2827 44.576 61.9707 47.6027 63.4827C47.6027 63.4827 48.4693 64.04 49.3387 64.04C50.208 64.04 50.8907 63.624 50.8907 63.624L50.888 63.6213Z" fill="#909CB0"/>
</g>
<defs>
<clipPath id="clip0_66_216">
<rect width="64" height="64" fill="white"/>
</clipPath>
</defs>
</svg>
