<svg width="64" height="64" viewBox="0 0 64 64" fill="none" xmlns="http://www.w3.org/2000/svg">
<g clip-path="url(#clip0_15_4691)">
<path d="M38.75 51.25C45.6536 51.25 51.25 45.6536 51.25 38.75C51.25 31.8464 45.6536 26.25 38.75 26.25C31.8464 26.25 26.25 31.8464 26.25 38.75C26.25 45.6536 31.8464 51.25 38.75 51.25Z" fill="#B29B35"/>
<path d="M62.9016 57.5983L52.5784 47.275C51.2467 49.4271 49.4272 51.2466 47.2751 52.5784L57.5984 62.9016C59.0629 64.3661 61.4372 64.3661 62.9016 62.9016C64.3661 61.4371 64.3661 59.0628 62.9016 57.5983Z" fill="#B29B35"/>
<path d="M12.5 1.09839L1.09837 12.5H12.5V1.09839Z" fill="#909CB0"/>
<path d="M11.25 32.5H23.7507C24.7717 30.0587 26.3717 27.9179 28.3785 26.25H11.25V32.5Z" fill="#909CB0"/>
<path d="M22.6924 36.25H9.375C8.3395 36.25 7.5 35.4105 7.5 34.375V24.375C7.5 23.3395 8.3395 22.5 9.375 22.5H38.75C42.5182 22.5 45.9906 23.7895 48.75 25.95V5.625C48.75 2.52338 46.2266 0 43.125 0H16.25V14.375C16.25 15.4105 15.4105 16.25 14.375 16.25H0V58.375C0 61.4766 2.52338 64 5.625 64H43.125C45.9178 64 48.2405 61.9539 48.6758 59.2824L43.6406 54.2472C42.0964 54.7356 40.4536 55 38.75 55C34.8106 55 31.1945 53.5905 28.3785 51.25H9.375C8.3395 51.25 7.5 50.4105 7.5 49.375C7.5 48.3395 8.3395 47.5 9.375 47.5H25.0623C24.3193 46.3418 23.7202 45.0831 23.2881 43.75H9.375C8.3395 43.75 7.5 42.9105 7.5 41.875C7.5 40.8395 8.3395 40 9.375 40H22.5476C22.3765 38.1284 22.6924 36.25 22.6924 36.25ZM39.375 18.75H21.875C20.8395 18.75 20 17.9105 20 16.875C20 15.8395 20.8395 15 21.875 15H39.375C40.4105 15 41.25 15.8395 41.25 16.875C41.25 17.9105 40.4105 18.75 39.375 18.75ZM39.375 11.25H21.875C20.8395 11.25 20 10.4105 20 9.375C20 8.3395 20.8395 7.5 21.875 7.5H39.375C40.4105 7.5 41.25 8.3395 41.25 9.375C41.25 10.4105 40.4105 11.25 39.375 11.25Z" fill="#909CB0"/>
</g>
<defs>
<clipPath id="clip0_15_4691">
<rect width="64" height="64" fill="white"/>
</clipPath>
</defs>
</svg>
