<svg width="20" height="20" viewBox="0 0 20 20" fill="none" xmlns="http://www.w3.org/2000/svg">
<path d="M10.6966 0.0233336C9.26795 -0.0766322 7.83444 0.131455 6.49313 0.633515C5.15182 1.13557 3.934 1.91989 2.92208 2.9334C1.91015 3.9469 1.12774 5.16594 0.62777 6.50804C0.127804 7.85013 -0.0780462 9.28396 0.0241488 10.7125C0.391649 16.0067 5.06832 20 10.9025 20H15.8333C16.938 19.9987 17.997 19.5593 18.7781 18.7782C19.5592 17.997 19.9987 16.938 20 15.8333V10.2833C20.0311 7.71454 19.0892 5.22908 17.3636 3.32598C15.6379 1.42287 13.2562 0.243032 10.6966 0.0233336ZM9.99998 4.16667C10.3315 4.16667 10.6494 4.29836 10.8839 4.53278C11.1183 4.7672 11.25 5.08515 11.25 5.41667C11.25 5.74819 11.1183 6.06613 10.8839 6.30055C10.6494 6.53497 10.3315 6.66667 9.99998 6.66667C9.66846 6.66667 9.35052 6.53497 9.1161 6.30055C8.88168 6.06613 8.74998 5.74819 8.74998 5.41667C8.74998 5.08515 8.88168 4.7672 9.1161 4.53278C9.35052 4.29836 9.66846 4.16667 9.99998 4.16667ZM11.6666 15C11.6666 15.221 11.5789 15.433 11.4226 15.5893C11.2663 15.7455 11.0543 15.8333 10.8333 15.8333C10.6123 15.8333 10.4003 15.7455 10.2441 15.5893C10.0878 15.433 9.99998 15.221 9.99998 15V10H9.16665C8.94564 10 8.73367 9.9122 8.57739 9.75592C8.42111 9.59964 8.33332 9.38768 8.33332 9.16667C8.33332 8.94565 8.42111 8.73369 8.57739 8.57741C8.73367 8.42113 8.94564 8.33333 9.16665 8.33333H9.99998C10.442 8.33333 10.8659 8.50893 11.1785 8.82149C11.4911 9.13405 11.6666 9.55797 11.6666 10V15Z" fill="white"/>
</svg>
