<svg width="161" height="32" viewBox="0 0 161 32" fill="none" xmlns="http://www.w3.org/2000/svg">
<path d="M9.0913 24.8H6.0475V7.08001H9.0913V4.8H0V7.08001H3.00373V24.8H0V27.04H9.0913V24.8Z" fill="#24282F"/>
<path d="M26.0724 17.12C26.0724 15.24 25.6318 13.8 24.7107 12.8C23.8296 11.8 22.508 11.32 20.8259 11.32C19.9047 11.32 18.9836 11.52 18.1025 11.88C17.2214 12.24 16.3403 12.76 15.5393 13.44V11.76H12.896V27.04H15.5393V15.6C16.2602 15.08 17.0211 14.6 17.8221 14.28C18.6231 13.92 19.3841 13.76 20.105 13.76C20.8259 13.76 21.3866 13.84 21.8271 14.04C22.2677 14.24 22.6281 14.52 22.8284 14.88C23.0687 15.24 23.2289 15.72 23.309 16.32C23.3891 16.92 23.4291 17.6 23.4291 18.28V27H26.0724V17.12Z" fill="#24282F"/>
<path d="M44.3751 17.12C44.3751 15.24 43.9346 13.8 43.0134 12.8C42.1324 11.8 40.8107 11.32 39.1286 11.32C38.2075 11.32 37.2863 11.52 36.4052 11.88C35.5241 12.24 34.643 12.76 33.842 13.44V11.76H31.1988V27.04H33.842V15.6C34.5629 15.08 35.3239 14.6 36.1249 14.28C36.9259 13.92 37.6868 13.76 38.4077 13.76C39.1286 13.76 39.6893 13.84 40.1299 14.04C40.5704 14.24 40.9309 14.52 41.1311 14.88C41.3714 15.24 41.5316 15.72 41.6117 16.32C41.6918 16.92 41.7318 17.6 41.7318 18.28V27H44.3751V17.12Z" fill="#24282F"/>
<path d="M62.9582 19.4C62.9582 16.92 62.3174 14.92 60.9958 13.48C59.6741 12.04 57.9119 11.32 55.7092 11.32C53.4664 11.32 51.7042 12.04 50.3826 13.48C49.0609 14.92 48.4202 16.88 48.4202 19.4C48.4202 21.88 49.0609 23.88 50.3826 25.32C51.7042 26.76 53.4664 27.48 55.7092 27.48C57.9119 27.48 59.6741 26.76 60.9958 25.32C62.3174 23.88 62.9582 21.92 62.9582 19.4ZM60.2348 19.4C60.2348 21.32 59.8343 22.8 59.0333 23.76C58.2323 24.76 57.1109 25.24 55.7092 25.24C54.2674 25.24 53.146 24.76 52.345 23.76C51.544 22.76 51.1435 21.32 51.1435 19.4C51.1435 17.4 51.544 15.96 52.345 15C53.146 14.04 54.2674 13.56 55.7092 13.56C57.151 13.56 58.2323 14.04 59.0333 15C59.8343 15.96 60.2348 17.44 60.2348 19.4Z" fill="#24282F"/>
<path d="M84.2647 23.56H83.8241C83.6639 23.64 83.3435 23.76 82.943 23.88C82.5025 24 82.1821 24.04 81.9017 24.04C81.2609 24.04 80.7804 23.96 80.46 23.76C80.1396 23.56 79.8993 23.32 79.7791 23C79.6189 22.68 79.5788 22.32 79.5388 21.92C79.5388 21.52 79.5388 21.04 79.5388 20.52V15.08H84.3047V11.72H79.5388V7.32H74.4525V11.72H72.3699V15.08H74.4525V22.28C74.4525 24.16 74.9331 25.48 75.8943 26.28C76.8555 27.04 78.3373 27.44 80.2997 27.44C81.1808 27.44 81.9418 27.4 82.5425 27.32C83.1433 27.24 83.744 27.12 84.2647 27V23.56Z" fill="#24282F"/>
<path d="M102.928 20.28V18.56C102.928 16.2 102.287 14.36 100.965 13.12C99.6838 11.84 97.7214 11.24 95.1582 11.24C92.3547 11.24 90.152 12 88.55 13.48C86.948 14.96 86.147 16.96 86.147 19.52C86.147 22.08 86.9881 24.08 88.7102 25.44C90.3923 26.84 92.8353 27.52 96.0393 27.52C97.2808 27.52 98.4022 27.4 99.4035 27.2C100.405 27 101.486 26.68 102.648 26.24V22.28H102.087C101.486 22.72 100.725 23.12 99.6838 23.48C98.6826 23.84 97.6413 24.04 96.5599 24.04C94.8778 24.04 93.5963 23.72 92.7152 23.08C91.8341 22.44 91.3535 21.52 91.3134 20.32H102.928V20.28ZM97.8415 17.4H91.2333C91.3134 16.32 91.6739 15.52 92.2746 15.04C92.9154 14.56 93.7164 14.32 94.6776 14.32C95.7189 14.32 96.5199 14.6 97.0005 15.12C97.5612 15.56 97.8415 16.36 97.8415 17.4Z" fill="#24282F"/>
<path d="M123.513 15.44C123.914 15.28 124.314 15.24 124.755 15.24C125.396 15.24 125.876 15.32 126.237 15.48C126.597 15.64 126.838 15.88 126.998 16.2C127.158 16.52 127.278 16.96 127.318 17.48C127.358 18 127.358 18.64 127.358 19.4V27.08H132.445V17.08C132.445 15.2 132.004 13.76 131.123 12.76C130.242 11.76 128.92 11.28 127.198 11.28C126.277 11.28 125.316 11.52 124.354 12C123.393 12.48 122.392 13.12 121.391 13.96C120.95 13.08 120.309 12.4 119.508 11.96C118.707 11.52 117.786 11.28 116.745 11.28C115.784 11.28 114.903 11.48 114.102 11.84C113.301 12.2 112.46 12.72 111.579 13.4V11.72H106.492V27.12H111.579V16.2C111.939 16 112.38 15.76 112.86 15.56C113.341 15.36 113.821 15.28 114.302 15.28C114.943 15.28 115.423 15.36 115.744 15.52C116.104 15.68 116.345 15.92 116.505 16.24C116.665 16.56 116.785 17 116.825 17.52C116.865 18.04 116.865 18.68 116.865 19.44V27.12H121.952V16.2C122.592 15.84 123.113 15.6 123.513 15.44Z" fill="#24282F"/>
<path d="M142.257 11.68H137.13V27.04H142.257V11.68Z" fill="#24282F"/>
<path d="M159.879 19.44C159.238 18.72 158.237 18.2 156.915 17.84C156.314 17.68 155.713 17.56 155.113 17.48C154.512 17.4 153.951 17.28 153.431 17.2C152.469 17 151.909 16.8 151.628 16.64C151.388 16.44 151.228 16.16 151.228 15.8C151.228 15.4 151.508 15.08 152.069 14.88C152.63 14.68 153.31 14.56 154.151 14.56C155.153 14.56 156.114 14.72 157.075 15.04C158.036 15.36 158.917 15.76 159.638 16.28H160.079V12.4C159.478 12.12 158.597 11.88 157.516 11.64C156.434 11.4 155.273 11.28 154.111 11.28C151.588 11.28 149.626 11.76 148.184 12.76C146.742 13.76 146.021 14.96 146.021 16.44C146.021 17.6 146.382 18.56 147.063 19.32C147.744 20.08 148.825 20.68 150.267 21.04C150.787 21.16 151.388 21.28 152.029 21.4C152.67 21.48 153.19 21.6 153.551 21.68C154.352 21.84 154.872 22 155.153 22.16C155.433 22.32 155.593 22.6 155.593 22.96C155.593 23.4 155.353 23.68 154.872 23.92C154.392 24.12 153.671 24.24 152.67 24.24C151.909 24.24 151.188 24.16 150.507 24C149.826 23.84 149.225 23.68 148.705 23.44C148.104 23.2 147.623 23 147.303 22.76C146.983 22.56 146.662 22.36 146.422 22.2H145.941V26.24C146.622 26.56 147.543 26.84 148.705 27.08C149.866 27.32 151.148 27.48 152.55 27.48C155.113 27.48 157.115 27 158.597 26.04C160.079 25.08 160.8 23.8 160.8 22.2C160.84 21.08 160.519 20.2 159.879 19.44Z" fill="#24282F"/>
<path d="M139.694 10.2C141.175 10.2 142.417 9.00001 142.417 7.48001C142.417 6.00001 141.215 4.76 139.694 4.76C138.212 4.76 136.97 5.96001 136.97 7.48001C136.97 9.00001 138.212 10.2 139.694 10.2Z" fill="#B29B35"/>
<path d="M67.6841 7.03999C68.3249 7.03999 68.8055 6.52 68.8055 5.92C68.8055 5.28 68.2848 4.8 67.6841 4.8C67.0833 4.8 66.5627 5.32 66.5627 5.92C66.5226 6.56 67.0433 7.03999 67.6841 7.03999Z" fill="#B29B35"/>
<path d="M67.6841 23.4C68.3249 23.4 68.8055 22.88 68.8055 22.28C68.8055 21.64 68.2848 21.16 67.6841 21.16C67.0833 21.16 66.5627 21.68 66.5627 22.28C66.5226 22.88 67.0433 23.4 67.6841 23.4Z" fill="#B29B35"/>
<path d="M67.6841 27.48C68.3249 27.48 68.8055 26.96 68.8055 26.36C68.8055 25.72 68.2848 25.24 67.6841 25.24C67.0833 25.24 66.5627 25.76 66.5627 26.36C66.5226 26.96 67.0433 27.48 67.6841 27.48Z" fill="#B29B35"/>
<path d="M67.6841 19.32C68.3249 19.32 68.8055 18.8 68.8055 18.2C68.8055 17.56 68.2848 17.08 67.6841 17.08C67.0833 17.08 66.5627 17.6 66.5627 18.2C66.5226 18.8 67.0433 19.32 67.6841 19.32Z" fill="#B29B35"/>
<path d="M67.6841 15.24C68.3249 15.24 68.8055 14.72 68.8055 14.12C68.8055 13.48 68.2848 13 67.6841 13C67.0833 13 66.5627 13.52 66.5627 14.12C66.5226 14.72 67.0433 15.24 67.6841 15.24Z" fill="#B29B35"/>
<path d="M67.6841 11.12C68.3249 11.12 68.8055 10.6 68.8055 10C68.8055 9.36 68.2848 8.88 67.6841 8.88C67.0833 8.88 66.5627 9.4 66.5627 10C66.5226 10.64 67.0433 11.12 67.6841 11.12Z" fill="#B29B35"/>
</svg>
