<svg width="24" height="24" viewBox="0 0 24 24" fill="none" xmlns="http://www.w3.org/2000/svg">
<g clip-path="url(#clip0_66_189)">
<path d="M0 6.24018C0 13.8802 10.13 24.0002 17.76 24.0002C19.43 24.0002 20.99 23.3702 22.14 22.2202L23.14 21.0702C24.3 19.9102 24.3 17.9502 23.09 16.7402C23.06 16.7102 20.65 14.8602 20.65 14.8602C19.45 13.7202 17.56 13.7202 16.37 14.8602L14.91 16.0302C11.71 14.6702 9.44 12.3902 7.98 9.08018L9.14 7.62018C10.29 6.43018 10.29 4.53018 9.14 3.34018C9.14 3.34018 7.29 0.930176 7.26 0.900176C6.05 -0.309824 4.09 -0.309824 2.88 0.900176L1.83 1.81018C0.630001 3.00018 0 4.56018 0 6.23018V6.24018Z" fill="#B29B35"/>
</g>
<defs>
<clipPath id="clip0_66_189">
<rect width="24" height="24" fill="white" transform="matrix(-1 0 0 1 24 0)"/>
</clipPath>
</defs>
</svg>
