<svg width="64" height="64" viewBox="0 0 64 64" fill="none" xmlns="http://www.w3.org/2000/svg">
<g clip-path="url(#clip0_66_201)">
<path d="M40 53.3333H24C18.1173 53.3333 13.3333 48.5493 13.3333 42.6667V40H50.6667V42.6667C50.6667 48.5493 45.8827 53.3333 40 53.3333ZM5.33333 18.6667V13.3333C5.33333 8.92267 8.92267 5.33333 13.3333 5.33333H18.6667C20.1413 5.33333 21.3333 4.14133 21.3333 2.66667C21.3333 1.192 20.1413 0 18.6667 0H13.3333C5.98133 0 0 5.98133 0 13.3333V18.6667C0 20.1413 1.192 21.3333 2.66667 21.3333C4.14133 21.3333 5.33333 20.1413 5.33333 18.6667ZM64 18.6667V13.3333C64 5.98133 58.0187 0 50.6667 0H45.3333C43.8587 0 42.6667 1.192 42.6667 2.66667C42.6667 4.14133 43.8587 5.33333 45.3333 5.33333H50.6667C55.0773 5.33333 58.6667 8.92267 58.6667 13.3333V18.6667C58.6667 20.1413 59.8587 21.3333 61.3333 21.3333C62.808 21.3333 64 20.1413 64 18.6667ZM64 50.6667V45.3333C64 43.8587 62.808 42.6667 61.3333 42.6667C59.8587 42.6667 58.6667 43.8587 58.6667 45.3333V50.6667C58.6667 55.0773 55.0773 58.6667 50.6667 58.6667H45.3333C43.8587 58.6667 42.6667 59.8587 42.6667 61.3333C42.6667 62.808 43.8587 64 45.3333 64H50.6667C58.0187 64 64 58.0187 64 50.6667ZM21.3333 61.3333C21.3333 59.8587 20.1413 58.6667 18.6667 58.6667H13.3333C8.92267 58.6667 5.33333 55.0773 5.33333 50.6667V45.3333C5.33333 43.8587 4.14133 42.6667 2.66667 42.6667C1.192 42.6667 0 43.8587 0 45.3333V50.6667C0 58.0187 5.98133 64 13.3333 64H18.6667C20.1413 64 21.3333 62.808 21.3333 61.3333ZM37.3333 21.3333C37.3333 22.8053 38.528 24 40 24H50.6267C50.5253 22.0213 49.7333 20.168 48.3227 18.7573L42.576 13.0107C41.1653 11.6 39.312 10.808 37.3333 10.7067V21.3333ZM61.3333 29.3333H40C35.5893 29.3333 32 25.744 32 21.3333V10.6667H24C18.1173 10.6667 13.3333 15.4507 13.3333 21.3333V29.3333H2.66667C1.192 29.3333 0 30.5253 0 32C0 33.4747 1.192 34.6667 2.66667 34.6667H61.3333C62.808 34.6667 64 33.4747 64 32C64 30.5253 62.808 29.3333 61.3333 29.3333Z" fill="#909CB0"/>
</g>
<defs>
<clipPath id="clip0_66_201">
<rect width="64" height="64" fill="white"/>
</clipPath>
</defs>
</svg>
