<svg width="1440" height="160" viewBox="0 0 1440 160" fill="none" xmlns="http://www.w3.org/2000/svg">
<g clip-path="url(#clip0_15_4918)">
<path d="M81.8249 179.955H54.4297V20.4686H81.8249V-0.0522461H0V20.4686H27.0346V179.955H0V200.115H81.8249V179.955Z" fill="#555D6A"/>
<path d="M234.661 110.832C234.661 93.9118 230.696 80.9513 222.405 71.9509C214.475 62.9506 202.58 58.6304 187.44 58.6304C179.15 58.6304 170.859 60.4305 162.929 63.6707C154.999 66.9108 147.068 71.5908 139.859 77.7111V62.5907H116.069V200.116H139.859V97.1519C146.347 92.4717 153.196 88.1516 160.406 85.2715C167.615 82.0314 174.464 80.5914 180.952 80.5914C187.44 80.5914 192.487 81.3112 196.452 83.1113C200.417 84.9114 203.661 87.4316 205.463 90.6717C207.626 93.9118 209.068 98.2319 209.789 103.632C210.51 109.032 210.87 115.153 210.87 121.273V199.756H234.661V110.832Z" fill="#555D6A"/>
<path d="M399.392 110.832C399.392 93.9118 395.427 80.9513 387.136 71.9509C379.206 62.9506 367.311 58.6304 352.171 58.6304C343.881 58.6304 335.59 60.4305 327.66 63.6707C319.73 66.9108 311.799 71.5908 304.59 77.7111V62.5907H280.8V200.116H304.59V97.1519C311.079 92.4717 317.927 88.1516 325.137 85.2715C332.346 82.0314 339.195 80.5914 345.683 80.5914C352.171 80.5914 357.218 81.3112 361.183 83.1113C365.148 84.9114 368.392 87.4316 370.194 90.6717C372.357 93.9118 373.799 98.2319 374.52 103.632C375.241 109.032 375.601 115.153 375.601 121.273V199.756H399.392V110.832Z" fill="#555D6A"/>
<path d="M566.646 131.353C566.646 109.032 560.879 91.0317 548.983 78.0712C537.088 65.1107 521.228 58.6304 501.402 58.6304C481.216 58.6304 465.356 65.1107 453.461 78.0712C441.566 91.0317 435.798 108.672 435.798 131.353C435.798 153.674 441.566 171.675 453.461 184.635C465.356 197.596 481.216 204.076 501.402 204.076C521.228 204.076 537.088 197.596 548.983 184.635C560.879 171.675 566.646 154.034 566.646 131.353ZM542.135 131.353C542.135 148.634 538.53 161.955 531.321 170.595C524.112 179.595 514.019 183.915 501.402 183.915C488.426 183.915 478.333 179.595 471.124 170.595C463.914 161.595 460.31 148.634 460.31 131.353C460.31 113.353 463.914 100.392 471.124 91.7517C478.333 83.1114 488.426 78.7913 501.402 78.7913C514.379 78.7913 524.112 83.1114 531.321 91.7517C538.53 100.392 542.135 113.713 542.135 131.353Z" fill="#555D6A"/>
<path d="M758.412 168.795H754.447C753.005 169.515 750.121 170.595 746.516 171.675C742.551 172.755 739.668 173.115 737.144 173.115C731.377 173.115 727.052 172.395 724.168 170.595C721.284 168.795 719.121 166.635 718.04 163.754C716.598 160.874 716.238 157.634 715.877 154.034C715.877 150.434 715.877 146.114 715.877 141.434V92.4717H758.772V62.2305H715.877V22.6289H670.099V62.2305H651.355V92.4717H670.099V157.274C670.099 174.195 674.424 186.075 683.075 193.276C691.726 200.116 705.063 203.716 722.726 203.716C730.656 203.716 737.505 203.356 742.912 202.636C748.319 201.916 753.726 200.836 758.412 199.756V168.795Z" fill="#555D6A"/>
<path d="M926.387 139.273V123.792C926.387 102.552 920.619 85.9908 908.724 74.8304C897.189 63.3099 879.527 57.9097 856.457 57.9097C831.225 57.9097 811.4 64.7501 796.981 78.0706C782.563 91.3911 775.353 109.392 775.353 132.433C775.353 155.474 782.923 173.474 798.423 185.715C813.562 198.315 835.55 204.435 864.387 204.435C875.562 204.435 885.655 203.355 894.666 201.555C903.678 199.755 913.41 196.875 923.864 192.915V157.274H918.817C913.41 161.234 906.562 164.834 897.19 168.074C888.178 171.314 878.806 173.114 869.073 173.114C853.934 173.114 842.399 170.234 834.469 164.474C826.539 158.714 822.213 150.433 821.853 139.633H926.387V139.273ZM880.608 113.352H821.132C821.853 103.632 825.097 96.4312 830.504 92.111C836.272 87.7908 843.481 85.6308 852.132 85.6308C861.504 85.6308 868.713 88.1509 873.039 92.8311C878.085 96.7912 880.608 103.992 880.608 113.352Z" fill="#555D6A"/>
<path d="M1111.66 95.7114C1115.27 94.2713 1118.87 93.9113 1122.84 93.9113C1128.61 93.9113 1132.93 94.6314 1136.18 96.0715C1139.42 97.5116 1141.58 99.6716 1143.02 102.552C1144.47 105.432 1145.55 109.392 1145.91 114.072C1146.27 118.752 1146.27 124.513 1146.27 131.353V200.476H1192.05V110.472C1192.05 93.5514 1188.08 80.5909 1180.15 71.5906C1172.22 62.5902 1160.33 58.27 1144.83 58.27C1136.54 58.27 1127.89 60.4301 1119.23 64.7502C1110.58 69.0704 1101.57 74.8307 1092.56 82.391C1088.59 74.4707 1082.83 68.3505 1075.62 64.3903C1068.41 60.4301 1060.12 58.27 1050.75 58.27C1042.1 58.27 1034.17 60.07 1026.96 63.3101C1019.75 66.5502 1012.18 71.2305 1004.25 77.3507V62.2301H958.468V200.836H1004.25V102.552C1007.49 100.752 1011.46 98.5916 1015.78 96.7916C1020.11 94.9915 1024.43 94.2714 1028.76 94.2714C1034.53 94.2714 1038.85 94.9914 1041.73 96.4314C1044.98 97.8715 1047.14 100.032 1048.58 102.912C1050.03 105.792 1051.11 109.752 1051.47 114.432C1051.83 119.112 1051.83 124.872 1051.83 131.713V200.836H1097.61V102.552C1103.37 99.3116 1108.06 97.1514 1111.66 95.7114Z" fill="#555D6A"/>
<path d="M1280.36 61.8691H1234.22V200.114H1280.36V61.8691Z" fill="#555D6A"/>
<path d="M1438.96 131.713C1433.2 125.233 1424.18 120.552 1412.29 117.312C1406.88 115.872 1401.48 114.792 1396.07 114.072C1390.66 113.352 1385.62 112.272 1380.93 111.552C1372.28 109.752 1367.23 107.952 1364.71 106.512C1362.55 104.712 1361.1 102.192 1361.1 98.9516C1361.1 95.3514 1363.63 92.4714 1368.67 90.6713C1373.72 88.8712 1379.85 87.7912 1387.42 87.7912C1396.43 87.7912 1405.08 89.2311 1413.73 92.1112C1422.38 94.9913 1430.31 98.5916 1436.8 103.272H1440.77V68.3504C1435.36 65.8303 1427.43 63.6701 1417.7 61.51C1407.96 59.3499 1397.51 58.27 1387.06 58.27C1364.35 58.27 1346.69 62.5902 1333.71 71.5906C1320.73 80.5909 1314.24 91.3912 1314.24 104.712C1314.24 115.152 1317.49 123.792 1323.62 130.633C1329.74 137.473 1339.48 142.873 1352.45 146.113C1357.14 147.193 1362.55 148.273 1368.31 149.354C1374.08 150.074 1378.77 151.154 1382.01 151.874C1389.22 153.314 1393.91 154.754 1396.43 156.194C1398.95 157.634 1400.39 160.154 1400.39 163.394C1400.39 167.354 1398.23 169.874 1393.91 172.034C1389.58 173.834 1383.09 174.914 1374.08 174.914C1367.23 174.914 1360.74 174.195 1354.62 172.754C1348.49 171.314 1343.08 169.874 1338.39 167.714C1332.99 165.554 1328.66 163.754 1325.78 161.594C1322.9 159.794 1320.01 157.994 1317.85 156.554H1313.52V192.915C1319.65 195.795 1327.94 198.316 1338.39 200.476C1348.85 202.636 1360.38 204.076 1373 204.076C1396.07 204.076 1414.09 199.755 1427.43 191.115C1440.77 182.475 1447.25 170.954 1447.25 156.554C1447.61 146.473 1444.73 138.553 1438.96 131.713Z" fill="#555D6A"/>
<path d="M1257.29 48.5493C1270.63 48.5493 1281.8 37.749 1281.8 24.0684C1281.8 10.7479 1270.99 -0.412598 1257.29 -0.412598C1243.95 -0.412598 1232.78 10.3879 1232.78 24.0684C1232.78 37.749 1243.95 48.5493 1257.29 48.5493Z" fill="#B29B35"/>
<path d="M609.18 20.1085C614.948 20.1085 619.273 15.4283 619.273 10.0281C619.273 4.26788 614.587 -0.0522461 609.18 -0.0522461C603.774 -0.0522461 599.088 4.62789 599.088 10.0281C598.727 15.7883 603.413 20.1085 609.18 20.1085Z" fill="#B29B35"/>
<path d="M609.18 167.353C614.948 167.353 619.273 162.673 619.273 157.273C619.273 151.513 614.587 147.192 609.18 147.192C603.774 147.192 599.088 151.873 599.088 157.273C598.727 162.673 603.413 167.353 609.18 167.353Z" fill="#B29B35"/>
<path d="M609.18 130.631C614.948 130.631 619.273 125.951 619.273 120.551C619.273 114.79 614.587 110.47 609.18 110.47C603.774 110.47 599.088 115.15 599.088 120.551C598.727 125.951 603.413 130.631 609.18 130.631Z" fill="#B29B35"/>
<path d="M609.18 93.9131C614.948 93.9131 619.273 89.233 619.273 83.8328C619.273 78.0726 614.587 73.7524 609.18 73.7524C603.774 73.7524 599.088 78.4326 599.088 83.8328C598.727 89.233 603.413 93.9131 609.18 93.9131Z" fill="#B29B35"/>
<path d="M609.18 56.8306C614.948 56.8306 619.273 52.1505 619.273 46.7503C619.273 40.99 614.587 36.6699 609.18 36.6699C603.774 36.6699 599.088 41.3501 599.088 46.7503C598.727 52.5105 603.413 56.8306 609.18 56.8306Z" fill="#B29B35"/>
</g>
<defs>
<clipPath id="clip0_15_4918">
<rect width="1440" height="160" fill="white"/>
</clipPath>
</defs>
</svg>
