<svg width="64" height="64" viewBox="0 0 64 64" fill="none" xmlns="http://www.w3.org/2000/svg">
<g clip-path="url(#clip0_66_219)">
<path d="M25.6773 41.6773C27.36 39.992 29.6987 39.1387 32.056 39.3653L39.3653 32.056C39.344 31.816 39.3333 31.576 39.3333 31.3333C39.3333 29.6293 39.8827 28.0187 40.864 26.6667H34.6667C30.256 26.6667 26.6667 23.0773 26.6667 18.6667V0.064C26.2373 0.0346667 25.808 0 25.3733 0H13.3333C5.98133 0 0 5.98133 0 13.3333V50.6667C0 58.0187 5.98133 64 13.3333 64H36.688L25.6773 52.9893C22.5573 49.872 22.5573 44.7947 25.6773 41.6773ZM10.6667 18.6667H16C17.472 18.6667 18.6667 19.8613 18.6667 21.3333C18.6667 22.8053 17.472 24 16 24H10.6667C9.19467 24 8 22.8053 8 21.3333C8 19.8613 9.19467 18.6667 10.6667 18.6667ZM10.6667 29.3333H29.3333C30.8053 29.3333 32 30.528 32 32C32 33.472 30.8053 34.6667 29.3333 34.6667H10.6667C9.19467 34.6667 8 33.472 8 32C8 30.528 9.19467 29.3333 10.6667 29.3333ZM16 45.3333H10.6667C9.19467 45.3333 8 44.1387 8 42.6667C8 41.1947 9.19467 40 10.6667 40H16C17.472 40 18.6667 41.1947 18.6667 42.6667C18.6667 44.1387 17.472 45.3333 16 45.3333ZM32 18.6667V1.22667C34.4347 2.14933 36.6747 3.57067 38.5733 5.46667L47.864 14.7627C49.7627 16.6587 51.184 18.8987 52.1067 21.3333H34.6667C33.1947 21.3333 32 20.136 32 18.6667ZM63.2187 63.2187C62.176 64.2613 60.4907 64.2613 59.448 63.2187L48.896 52.6667L44.6667 56.896L45.2187 57.448C46.2613 58.4907 46.2613 60.176 45.2187 61.2187C44.176 62.2613 42.4907 62.2613 41.448 61.2187L29.448 49.2187C28.4053 48.176 28.4053 46.4907 29.448 45.448C30.4907 44.4053 32.176 44.4053 33.2187 45.448L33.368 45.5973L45.5973 33.368L45.448 33.2187C44.4053 32.176 44.4053 30.4907 45.448 29.448C46.4907 28.4053 48.176 28.4053 49.2187 29.448L61.2187 41.448C62.2613 42.4907 62.2613 44.176 61.2187 45.2187C60.176 46.2613 58.4907 46.2613 57.448 45.2187L56.896 44.6667L52.6667 48.896L63.2187 59.448C64.2613 60.4907 64.2613 62.176 63.2187 63.2187Z" fill="#909CB0"/>
</g>
<defs>
<clipPath id="clip0_66_219">
<rect width="64" height="64" fill="white"/>
</clipPath>
</defs>
</svg>
