<svg width="20" height="20" viewBox="0 0 20 20" fill="none" xmlns="http://www.w3.org/2000/svg">
<path d="M8.40225 10.5333H11.6022V11.6H8.40225V10.5333Z" fill="#B29B35"/>
<path d="M15.6691 11.6H12.6689V12.1333C12.6689 12.4281 12.4303 12.6667 12.1356 12.6667H7.86891C7.57419 12.6667 7.33558 12.4281 7.33558 12.1333V11.6H4.33544C3.64586 11.6 3.036 11.1604 2.81766 10.5063L0.900024 4.75236V16.4C0.900024 17.2822 1.6178 18 2.50002 18H17.5045C18.3867 18 19.1045 17.2822 19.1045 16.4V4.75278L17.1867 10.5063C16.9685 11.1604 16.3586 11.6 15.6691 11.6Z" fill="#B29B35"/>
<path d="M12.1356 2H7.86891C6.98669 2 6.26891 2.71778 6.26891 3.6V4.13333H1.81766L3.82919 10.1687C3.90211 10.3869 4.10572 10.5333 4.33544 10.5333H7.33558V10C7.33558 9.70528 7.57419 9.46667 7.86891 9.46667H12.1356C12.4303 9.46667 12.6689 9.70528 12.6689 10V10.5333H15.6691C15.8988 10.5333 16.1024 10.3869 16.1753 10.1687L18.187 4.13333H13.7356V3.6C13.7356 2.71778 13.0178 2 12.1356 2ZM7.33558 4.13333V3.6C7.33558 3.30569 7.57461 3.06667 7.86891 3.06667H12.1356C12.4299 3.06667 12.6689 3.30569 12.6689 3.6V4.13333H7.33558Z" fill="#B29B35"/>
</svg>
