<svg width="64" height="64" viewBox="0 0 64 64" fill="none" xmlns="http://www.w3.org/2000/svg">
<g clip-path="url(#clip0_15_4705)">
<path d="M9.37718 36.1075C4.21743 36.1075 0.0188006 40.2963 0.00255063 45.4525C-0.0186994 46.2338 -0.0787001 55.3213 8.05105 63.4513C8.78355 64.1838 9.9738 64.1822 10.7022 63.4513C18.8319 55.3213 18.7732 46.2338 18.7519 45.4525C18.7356 40.2963 14.5358 36.1075 9.37718 36.1075ZM9.37718 47.3575C8.34093 47.3575 7.5023 46.5175 7.5023 45.4825C7.5023 44.4463 8.34105 43.6075 9.37718 43.6075C10.4122 43.6075 11.2521 44.4463 11.2521 45.4825C11.2522 46.5175 10.4122 47.3575 9.37718 47.3575Z" fill="#909CB0"/>
<path d="M63.6026 10.7863L60.7115 7.0725L63.6476 2.965C64.534 1.72625 63.6454 0 62.1226 0H47.1195C46.0833 0 45.2446 0.84 45.2446 1.875V22.245H43.8121C42.7771 22.245 41.9373 23.0838 41.9373 24.12C41.9373 25.155 42.7773 25.995 43.8121 25.995H50.4256C51.4606 25.995 52.3005 25.155 52.3005 24.12C52.3005 23.0838 51.4605 22.245 50.4256 22.245H48.9945V13.8125H62.1228C63.6831 13.8125 64.558 12.0131 63.6026 10.7863Z" fill="#B29B35"/>
<path d="M54.4279 37.0289C52.9349 32.5199 48.6783 29.3739 43.8221 29.3739H29.0238C28.2634 27.1672 26.1679 25.5764 23.7054 25.5764C21.2465 25.5764 19.1523 27.1637 18.3895 29.3667C14.4284 29.2157 11.252 25.9478 11.252 21.9502V17.9527C11.252 13.8592 14.5823 10.5289 18.6755 10.5289H26.6966C27.4708 12.7111 29.5549 14.2789 31.9988 14.2789C35.0999 14.2789 37.6235 11.7552 37.6235 8.65393C37.6235 5.55268 35.0999 3.02893 31.9988 3.02893C29.5549 3.02893 27.4708 4.59681 26.6966 6.77893H18.6755C12.5145 6.77893 7.50214 11.7914 7.50214 17.9527V21.9502C7.50214 28.0254 12.3755 32.9834 18.4181 33.1207C19.2045 35.2799 21.2779 36.8264 23.7053 36.8264C26.1325 36.8264 28.2045 35.2816 28.9915 33.1239H43.822C46.781 33.1239 49.404 34.8809 50.5838 37.4811C48.7536 38.4103 47.4956 40.3101 47.4956 42.4989C47.4956 44.6878 48.7536 46.5877 50.5838 47.5168C49.404 50.1169 46.781 51.8739 43.822 51.8739H37.3009C36.5268 49.6917 34.4426 48.1239 31.9988 48.1239C29.5549 48.1239 27.4706 49.6918 26.6966 51.8739H22.0505C21.015 51.8739 20.1756 52.7134 20.1756 53.7489C20.1756 54.7844 21.0151 55.6239 22.0505 55.6239H26.6965C27.4705 57.8067 29.5548 59.3739 31.9989 59.3739C34.443 59.3739 36.5273 57.8067 37.3013 55.6239H43.8223C48.6785 55.6239 52.9351 52.4778 54.428 47.9688C56.9006 47.3776 58.7454 45.1499 58.7454 42.4989C58.7454 39.8479 56.9005 37.6202 54.4279 37.0289Z" fill="#909CB0"/>
</g>
<defs>
<clipPath id="clip0_15_4705">
<rect width="64" height="64" fill="white"/>
</clipPath>
</defs>
</svg>
