<svg width="20" height="20" viewBox="0 0 20 20" fill="none" xmlns="http://www.w3.org/2000/svg">
<path d="M18.5201 9.44795C18.9554 9.00576 19.1091 8.35664 18.9212 7.75418C18.7333 7.15157 18.2428 6.72069 17.6412 6.62953L13.62 6.02077C13.4471 5.99458 13.2976 5.88139 13.2202 5.71797L11.4219 1.92115C11.1529 1.35289 10.608 1 10 1C9.3919 1 8.84712 1.35289 8.57795 1.92115L6.77976 5.71797C6.70244 5.88139 6.55289 5.99458 6.37999 6.02077L2.35884 6.62953C1.7572 6.72069 1.26666 7.15157 1.07879 7.75418C0.890927 8.35664 1.0446 9.00576 1.48007 9.44795L4.38967 12.4035C4.51492 12.5307 4.57205 12.7137 4.54238 12.8933L3.85546 17.0665C3.75274 17.691 3.99444 18.3102 4.48635 18.6827C4.76431 18.893 5.0895 18.9999 5.4169 18.9999C5.6689 18.9999 5.92227 18.9367 6.15628 18.8085L9.75294 16.8381C9.90757 16.7534 10.0924 16.7534 10.2471 16.8381L13.8437 18.8085C14.3819 19.1033 15.0217 19.055 15.5136 18.6827C16.0056 18.3103 16.2473 17.691 16.1444 17.0666L15.4576 12.8933C15.4279 12.7138 15.4851 12.5307 15.6103 12.4035L18.5201 9.44795ZM7.95777 11.6174L8.32197 11.9072C8.80125 12.2884 9.39712 12.4983 10 12.4983C10.6029 12.4983 11.1987 12.2884 11.678 11.9072L12.0424 11.6174C12.2739 11.4332 12.6047 11.4794 12.7815 11.7207C12.9582 11.9618 12.9139 12.3067 12.6823 12.4909L12.318 12.7808C11.6561 13.3074 10.8329 13.5974 10 13.5974C9.16709 13.5974 8.34394 13.3074 7.68201 12.7808L7.31768 12.491C7.08628 12.3069 7.04178 11.962 7.21852 11.7207C7.39527 11.4794 7.72623 11.4332 7.95777 11.6174ZM7.53177 9.16947C7.53177 8.74674 7.86068 8.40387 8.26635 8.40387C8.67216 8.40387 9.00106 8.7466 9.00106 9.16947C9.00106 9.5922 8.67216 9.93493 8.26635 9.93493C7.86068 9.93493 7.53177 9.5922 7.53177 9.16947ZM10.9989 9.16947C10.9989 8.74674 11.3278 8.40387 11.7335 8.40387C12.1393 8.40387 12.4682 8.7466 12.4682 9.16947C12.4682 9.5922 12.1393 9.93493 11.7335 9.93493C11.3278 9.93493 10.9989 9.5922 10.9989 9.16947Z" fill="#B29B35"/>
<path d="M7.53177 9.16947C7.53177 8.74674 7.86068 8.40387 8.26635 8.40387C8.67216 8.40387 9.00106 8.7466 9.00106 9.16947C9.00106 9.5922 8.67216 9.93493 8.26635 9.93493C7.86068 9.93493 7.53177 9.5922 7.53177 9.16947Z" fill="#B29B35"/>
<path d="M10.9989 9.16947C10.9989 8.74674 11.3278 8.40387 11.7335 8.40387C12.1393 8.40387 12.4682 8.7466 12.4682 9.16947C12.4682 9.5922 12.1393 9.93493 11.7335 9.93493C11.3278 9.93493 10.9989 9.5922 10.9989 9.16947Z" fill="#B29B35"/>
<path d="M7.95777 11.6174L8.32197 11.9072C8.80125 12.2884 9.39712 12.4983 10 12.4983C10.6029 12.4983 11.1987 12.2884 11.678 11.9072L12.0424 11.6174C12.2739 11.4332 12.6047 11.4794 12.7815 11.7207C12.9582 11.9618 12.9139 12.3067 12.6823 12.4909L12.318 12.7808C11.6561 13.3074 10.8329 13.5974 10 13.5974C9.16709 13.5974 8.34394 13.3074 7.68201 12.7808L7.31768 12.491C7.08628 12.3069 7.04178 11.962 7.21852 11.7207C7.39527 11.4794 7.72623 11.4332 7.95777 11.6174Z" fill="#B29B35"/>
</svg>
